<?xml version="1.0" encoding="UTF-8"?>
<svg id="Capa_3" data-name="Capa 3" xmlns="http://www.w3.org/2000/svg" viewBox="0 0 311.5 141.66">
  <defs>
    <style>
      .cls-1 {
        fill: #fff;
      }

      .cls-1, .cls-2 {
        stroke: #fff;
        stroke-miterlimit: 10;
      }

      .cls-2 {
        fill: none;
      }
    </style>
  </defs>
  <path class="cls-1" d="M305.53,106.54c.23,2.25.23,7.11,0,9.36-3.19,31.49-64.04,32.71-66.16-2.27-1.38-22.78,16.95-32.14,37.28-30.85,13.43.85,27.42,9.26,28.88,23.76ZM258.15,101.34c-5.18,5.18-4.73,15.86.99,20.56,5.88,4.83,20.8,4.86,26.73.12,4.9-3.92,5.79-11.78,3.4-17.33-4.28-9.92-24.22-10.25-31.12-3.35Z"/>
  <path class="cls-1" d="M16.35,83.74c.57.18,2.16,4.7,2.4,5.52,1.33,4.54,1.61,8.81.76,13.48-.39,2.16-1.23,4.06-1.6,6.19,12.73.91,23.82-8.27,28.56-19.52.35-.84,1.81-5.68,2.24-5.68h15.1l.36.36v54.36h-15.7c-1.06-1.57-1.8-3.52-2.34-5.34-1.72-5.81-1.63-10.74-.11-16.56.38-1.43,1.83-3.14-.18-3.32-11.62-1.03-23.02,9.16-27.33,19.22-.85,1.98-1.35,4.06-2.17,5.99H.66v-54.36l.36-.36h15.34Z"/>
  <path class="cls-1" d="M231.94,106.3h-15.1c-.89-9.46-14.9-10.45-22.14-9.57-8.94,1.09-14.23,5.51-14.06,14.98.18,10.13,7.29,13.56,16.42,14.04,6.81.36,19.1-.88,19.78-9.61h15.1c-.17,14.81-14.93,22.06-27.93,23.28-20.7,1.94-40.92-8.59-38.22-32.03,2.47-21.47,25.85-27.67,44.14-23.57,11,2.47,22.06,10.12,22,22.49Z"/>
  <path class="cls-1" d="M136.55,138.46h-15.46l-4.59-10.04-24.9-.06-4.42,10.1h-15.58l24.09-54.48c.17-.27.44-.22.71-.25,4.61-.57,10.39.47,15.13,0l.71.25,24.32,54.48ZM110.91,115.66l-6.71-16.8-7.19,16.8h13.9Z"/>
  <polygon class="cls-1" points="158.36 83.74 158.36 138.46 143.5 138.46 143.5 84.1 143.86 83.74 158.36 83.74"/>
  <path class="cls-2" d="M258.15,101.34c6.9-6.9,26.83-6.57,31.12,3.35,2.39,5.55,1.51,13.4-3.4,17.33-5.93,4.75-20.85,4.71-26.73-.12-5.72-4.7-6.17-15.38-.99-20.56Z"/>
  <polygon class="cls-2" points="110.91 115.66 97.01 115.66 104.19 98.86 110.91 115.66"/>
</svg>